<svg xmlns="http://www.w3.org/2000/svg" viewBox="0 0 64 64"><defs><style>.cls-1{fill:#d1e7ff;}.cls-2{fill:#8bc4ff;}.cls-3{fill:#a2d0ff;}.cls-4{fill:#000000;}</style></defs><title>Setting Clipboard</title><g id="Setting_Clipboard" data-name="Setting Clipboard"><path class="cls-1" d="M8,6H44a4,4,0,0,1,4,4V62a0,0,0,0,1,0,0H8a4,4,0,0,1-4-4V10A4,4,0,0,1,8,6Z"/><rect class="cls-2" x="17" y="2" width="18" height="8"/><path class="cls-2" d="M55.79,43.81l4.07-2.35-4-6.92-4.07,2.34A12,12,0,0,0,48,34.7V30H40v4.7a12,12,0,0,0-3.79,2.18l-4.07-2.34-4,6.92,4.07,2.35a11.73,11.73,0,0,0,0,4.38l-4.07,2.35,4,6.92,4.07-2.34A12,12,0,0,0,40,57.3V62h8V57.3a12,12,0,0,0,3.79-2.18l4.07,2.34,4-6.92-4.07-2.35A11.73,11.73,0,0,0,55.79,43.81Z"/><circle class="cls-3" cx="44" cy="46" r="4"/><path class="cls-4" d="M44,52a6,6,0,1,1,6-6A6,6,0,0,1,44,52Zm0-8a2,2,0,1,0,2,2A2,2,0,0,0,44,44Z"/><path class="cls-4" d="M25.53,60H8a2,2,0,0,1-2-2V10A2,2,0,0,1,8,8h7v2a2,2,0,0,0,2,2H35a2,2,0,0,0,2-2V8h7a2,2,0,0,1,2,2V22a2,2,0,0,0,4,0V10a6,6,0,0,0-6-6H37V2a2,2,0,0,0-2-2H17a2,2,0,0,0-2,2V4H8a6,6,0,0,0-6,6V58a6,6,0,0,0,6,6H25.53a2,2,0,0,0,0-4ZM33,4V8H19V4Z"/><path class="cls-4" d="M58,47.13a12.19,12.19,0,0,0,0-2.26c2.72-1.56,3.53-1.78,3.84-2.89s.11-1-4.2-8.44a2,2,0,0,0-2.73-.74L52,34.48a14.48,14.48,0,0,0-2-1.12V30a2,2,0,0,0-2-2H40a2,2,0,0,0-2,2v3.36a14.48,14.48,0,0,0-2,1.12c-2.79-1.61-3.34-2.15-4.42-1.88s-.89.36-5.22,7.86a2,2,0,0,0,.73,2.74l2.91,1.67a12.19,12.19,0,0,0,0,2.26L27.14,48.8a2,2,0,0,0-.73,2.74l4,6.92a2,2,0,0,0,2.73.74l2.91-1.68a14.48,14.48,0,0,0,2,1.12V62a2,2,0,0,0,2,2h8a2,2,0,0,0,2-2V58.64a14.48,14.48,0,0,0,2-1.12l2.91,1.68a2,2,0,0,0,2.73-.74c4.25-7.35,4.49-7.37,4.2-8.44S60.66,48.68,58,47.13Zm-4.13-3a9.39,9.39,0,0,1,0,3.66,2,2,0,0,0,1,2.09l2.33,1.35-2,3.46-2.33-1.35a2,2,0,0,0-2.3.22,10.15,10.15,0,0,1-3.16,1.82A2,2,0,0,0,46,57.3V60H42V57.3a2,2,0,0,0-1.33-1.88,10.15,10.15,0,0,1-3.16-1.82,2,2,0,0,0-2.3-.22l-2.33,1.35-2-3.46,2.33-1.35a2,2,0,0,0,1-2.09,9.39,9.39,0,0,1,0-3.66,2,2,0,0,0-1-2.09l-2.33-1.35,2-3.46,2.33,1.35a2,2,0,0,0,2.3-.22,10.15,10.15,0,0,1,3.16-1.82A2,2,0,0,0,42,34.7V32h4v2.7a2,2,0,0,0,1.33,1.88,10.15,10.15,0,0,1,3.16,1.82,2,2,0,0,0,2.3.22l2.33-1.35,2,3.46-2.33,1.35A2,2,0,0,0,53.82,44.17Z"/><path class="cls-4" d="M42,18a2,2,0,0,0-2-2H12a2,2,0,0,0,0,4H40A2,2,0,0,0,42,18Z"/><path class="cls-4" d="M34,26a2,2,0,0,0-2-2H12a2,2,0,0,0,0,4H32A2,2,0,0,0,34,26Z"/><path class="cls-4" d="M20,32H12a2,2,0,0,0,0,4h8a2,2,0,0,0,0-4Z"/><path class="cls-4" d="M20,40H12a2,2,0,0,0,0,4h8a2,2,0,0,0,0-4Z"/><path class="cls-4" d="M20,48H12a2,2,0,0,0,0,4h8a2,2,0,0,0,0-4Z"/></g></svg>